<?xml version="1.0" standalone="no"?><!DOCTYPE svg PUBLIC "-//W3C//DTD SVG 1.1//EN" "http://www.w3.org/Graphics/SVG/1.1/DTD/svg11.dtd"><svg t="1579502016122" class="icon" viewBox="0 0 1024 1024" version="1.1" xmlns="http://www.w3.org/2000/svg" p-id="1236" xmlns:xlink="http://www.w3.org/1999/xlink" width="200" height="200"><defs><style type="text/css"></style></defs><path d="M1024 676.571429v109.714285c0 9.728-8.557714 18.285714-18.285714 18.285715H219.428571v109.714285c0 9.728-8.009143 18.285714-18.285714 18.285715a21.174857 21.174857 0 0 1-13.714286-5.705143l-182.272-182.857143A17.737143 17.737143 0 0 1 0 731.428571c0-5.156571 1.718857-9.728 5.156571-13.129142l182.857143-182.857143A19.017143 19.017143 0 0 1 201.142857 530.285714c9.728 0 18.285714 8.009143 18.285714 18.285715v109.714285h786.285715c9.728 0 18.285714 8.009143 18.285714 18.285715z m0-310.857143a18.944 18.944 0 0 1-5.156571 13.129143l-182.857143 182.857142a19.017143 19.017143 0 0 1-13.129143 5.156572 18.797714 18.797714 0 0 1-18.285714-18.285714v-109.714286H18.285714a18.797714 18.797714 0 0 1-18.285714-18.285714v-109.714286c0-9.728 8.557714-18.285714 18.285714-18.285714H804.571429V182.857143c0-10.276571 8.009143-18.285714 18.285714-18.285714 5.156571 0 9.728 2.304 13.714286 5.705142l182.272 182.272a19.017143 19.017143 0 0 1 5.156571 13.129143z" fill="" p-id="1237"></path></svg>