<?xml version="1.0" standalone="no"?><!DOCTYPE svg PUBLIC "-//W3C//DTD SVG 1.1//EN" "http://www.w3.org/Graphics/SVG/1.1/DTD/svg11.dtd"><svg t="1595838671899" class="icon" viewBox="0 0 1024 1024" version="1.1" xmlns="http://www.w3.org/2000/svg" p-id="1168" xmlns:xlink="http://www.w3.org/1999/xlink" width="200" height="200"><defs><style type="text/css"></style></defs><path d="M957.44 348.16H785.066667c-25.6 0-46.08 6.826667-46.08-18.773333s20.48-46.08 46.08-46.08h80.213333C793.6 180.906667 648.533333 87.04 513.706667 87.04c-218.453333 0-424.96 206.506667-424.96 426.666667s204.8 426.666667 424.96 426.666666 397.653333-206.506667 397.653333-426.666666c0-25.6 11.946667-27.306667 37.546667-27.306667 25.6 0 27.306667 1.706667 27.306666 27.306667 0 271.36-191.146667 491.52-460.8 491.52C244.053333 1003.52 25.6 785.066667 25.6 513.706667S244.053333 22.186667 513.706667 22.186667c163.84 0 308.906667 81.92 397.653333 204.8V145.066667c0-25.6 20.48-46.08 46.08-46.08 25.6 0 18.773333 20.48 18.773333 46.08v184.32c0 18.773333-3.413333 18.773333-18.773333 18.773333z m0 0" p-id="1169"></path></svg>