<?xml version="1.0" standalone="no"?><!DOCTYPE svg PUBLIC "-//W3C//DTD SVG 1.1//EN" "http://www.w3.org/Graphics/SVG/1.1/DTD/svg11.dtd"><svg t="1579502270356" class="icon" viewBox="0 0 1025 1024" version="1.1" xmlns="http://www.w3.org/2000/svg" p-id="1979" xmlns:xlink="http://www.w3.org/1999/xlink" width="200.1953125" height="200"><defs><style type="text/css"></style></defs><path d="M512.005165 64.047998c86.515674 0 145.272736 29.438528 174.59127 87.499625 24.502775 48.557572 24.502775 107.242638 24.502775 158.99205 0 67.116644-33.878306 147.272636-93.019349 219.861007l-37.502125 46.093695 43.189841 40.837958c19.567022 18.439078 62.012899 41.253937 138.649068 79.564022 71.764412 35.870206 120.577971 61.148943 143.896805 84.491775 41.101945 41.093945 53.069347 117.9941 53.629319 156.960152 0.095995 5.687716-2.127894 11.247438-6.095695 15.279236-4.063797 4.135793-9.471526 6.383681-15.215239 6.383681L85.330498 960.011199c-5.663717 0-11.223439-2.311884-15.19124-6.383681-3.967802-4.031798-6.19969-9.59152-6.143693-15.247238 0.183991-10.743463 3.143843-106.466677 53.629319-156.99215 23.318834-23.310834 72.140393-48.549573 143.896805-84.491775 76.60417-38.246088 119.082046-61.100945 138.649068-79.628019l43.189841-40.813959-37.502125-46.061697c-59.069047-72.556372-92.987351-152.712364-92.987351-219.861007 0-51.749413 0-110.434478 24.502775-158.99205C366.732428 93.486526 425.433493 64.047998 512.005165 64.047998M512.005165 0.051197C371.644183 0.051197 308.511339 66.735863 280.280751 122.709065c-31.382431 62.148893-31.382431 131.833408-31.382431 187.830608 0 82.555872 39.382031 176.79916 107.330633 260.266987-16.255187 15.351232-83.139843 48.789561-123.329834 68.836558-79.700015 39.870006-130.273486 66.244688-160.511974 96.499175-66.964652 66.956652-72.028399 179.359032-72.356382 201.229939-0.375981 22.822859 8.455577 44.869757 24.502775 61.188941 16.031198 16.239188 37.942103 25.430728 60.79696 25.430728l853.309335 0c22.870856 0 44.757762-9.183541 60.788961-25.430728 16.039198-16.319184 24.878756-38.374081 24.534773-61.220939-0.343983-21.838908-5.439728-134.241288-72.388381-201.19794-30.19049-30.254487-80.79596-56.629169-160.519974-96.499175-40.189991-20.054997-107.082646-53.493325-123.305835-68.836558 67.916604-83.467827 107.330633-177.711114 107.330633-260.266987 0-55.9972 0-125.681716-31.350432-187.830608C715.482991 66.735863 652.342148 0.051197 512.005165 0.051197L512.005165 0.051197z" p-id="1980"></path></svg>